<svg xmlns="http://www.w3.org/2000/svg" width="1024" height="1024" viewBox="0 0 1024 1024">
  <!-- Nunito Bold's u, from the Nunito Project Authors' font under the SIL Open Font License 1.1. -->
  <path d="M473 727Q421.3 727 387.3 707.9Q353.4 688.8 336.9 650.7Q320.3 612.5 320.3 555.7V350.4Q320.3 323.3 333.9 310.1Q347.5 297 372.9 297Q398.4 297 412.3 310.1Q426.3 323.3 426.3 350.4V557.4Q426.3 601.5 444.1 622.7Q462 643.9 501 643.9Q543.4 643.9 570.5 614.6Q597.7 585.4 597.7 537V350.4Q597.7 323.3 611.2 310.1Q624.8 297 650.2 297Q675.7 297 689.7 310.1Q703.7 323.3 703.7 350.4V671Q703.7 725.3 651.9 725.3Q627.3 725.3 613.8 711.3Q600.2 697.3 600.2 671V606.6L612.1 632Q594.3 677.8 558.2 702.4Q522.2 727 473 727Z" fill="#f7f6f2"/>
</svg>
